SplineFontDB: 3.2
FontName: Polyglot
FullName: Polyglot
FamilyName: Polyglot
Weight: Regular
Copyright: Copyright (c) 2024, Human Solutions
UComments: "2024-5-13: Created with FontForge (http://fontforge.org)"
Version: 001.000
ItalicAngle: 0
UnderlinePosition: -204.8
UnderlineWidth: 102.4
Ascent: 1638
Descent: 410
InvalidEm: 0
LayerCount: 3
Layer: 0 0 "Atr+AOEA-s" 1
Layer: 1 0 "Fore" 0
Layer: 2 0 "Su" 1
XUID: [1021 237 -892499912 858049]
StyleMap: 0x0000
FSType: 0
OS2Version: 0
OS2_WeightWidthSlopeOnly: 0
OS2_UseTypoMetrics: 1
CreationTime: 1715581360
ModificationTime: 1716971252
OS2TypoAscent: 0
OS2TypoAOffset: 1
OS2TypoDescent: 0
OS2TypoDOffset: 1
OS2TypoLinegap: 184
OS2WinAscent: 0
OS2WinAOffset: 1
OS2WinDescent: 0
OS2WinDOffset: 1
HheadAscent: 0
HheadAOffset: 1
HheadDescent: 0
HheadDOffset: 1
OS2Vendor: 'PfEd'
MarkAttachClasses: 1
DEI: 91125
Encoding: ISO8859-1
UnicodeInterp: none
NameList: AGL For New Fonts
DisplaySize: -48
AntiAlias: 1
FitToEm: 0
WinInfo: 0 25 11
BeginPrivate: 0
EndPrivate
AnchorClass2: "upper left""" 
BeginChars: 256 20

StartChar: zero
Encoding: 48 48 0
Width: 1024
VWidth: 1000
InSpiro: 1
Flags: HW
LayerCount: 3
Fore
SplineSet
0 -150 m 1
 0 1298 l 1
 76 1298 l 1
 76 -150 l 1
 0 -150 l 1
  Spiro
    0 -150 v
    0 1298 v
    76 1298 v
    76 -150 v
    0 0 z
  EndSpiro
EndSplineSet
EndChar

StartChar: one
Encoding: 49 49 1
Width: 1024
Flags: HW
LayerCount: 3
Fore
SplineSet
0 -150 m 1
 0 1298 l 1
 144 1298 l 1
 144 -150 l 1
 0 -150 l 1
EndSplineSet
EndChar

StartChar: two
Encoding: 50 50 2
Width: 1024
Flags: HW
LayerCount: 3
Fore
SplineSet
0 -150 m 1
 0 1298 l 1
 216 1298 l 1
 216 -150 l 1
 0 -150 l 1
EndSplineSet
EndChar

StartChar: three
Encoding: 51 51 3
Width: 1024
Flags: HW
LayerCount: 3
Fore
SplineSet
0 -150 m 1
 0 1298 l 1
 288 1298 l 1
 288 -150 l 1
 0 -150 l 1
EndSplineSet
EndChar

StartChar: four
Encoding: 52 52 4
Width: 1024
Flags: HW
LayerCount: 3
Fore
SplineSet
0 -150 m 5
 0 1298 l 1
 360 1298 l 1
 360 -150 l 1
 0 -150 l 5
EndSplineSet
EndChar

StartChar: five
Encoding: 53 53 5
Width: 1024
Flags: HW
LayerCount: 3
Fore
SplineSet
0 -150 m 5
 0 1298 l 1
 432 1298 l 1
 432 -150 l 1
 0 -150 l 5
EndSplineSet
EndChar

StartChar: six
Encoding: 54 54 6
Width: 1024
Flags: HW
LayerCount: 3
Fore
SplineSet
0 -150 m 1
 0 1298 l 1
 504 1298 l 1
 504 -150 l 1
 0 -150 l 1
EndSplineSet
EndChar

StartChar: seven
Encoding: 55 55 7
Width: 1024
Flags: HW
LayerCount: 3
Fore
SplineSet
0 -150 m 1
 0 1298 l 1
 576 1298 l 1
 576 -150 l 1
 0 -150 l 1
EndSplineSet
EndChar

StartChar: eight
Encoding: 56 56 8
Width: 1024
Flags: HW
LayerCount: 3
Fore
SplineSet
0 -150 m 1
 0 1298 l 1
 648 1298 l 1
 648 -150 l 1
 0 -150 l 1
EndSplineSet
EndChar

StartChar: nine
Encoding: 57 57 9
Width: 1024
Flags: HW
LayerCount: 3
Fore
SplineSet
0 -150 m 1
 0 1298 l 1
 720 1298 l 1
 720 -150 l 1
 0 -150 l 1
EndSplineSet
EndChar

StartChar: s
Encoding: 115 115 10
Width: 1800
Flags: HW
LayerCount: 3
Fore
SplineSet
205 820 m 0
 205 543 439 299 716 299 c 0
 993 299 1237 543 1237 820 c 0
 1237 1097 993 1341 716 1341 c 0
 439 1341 205 1097 205 820 c 0
1651.41601562 64 m 1
 1651.41601562 64 1589.20788035 126.208135274 1707.08496094 8.3310546875 c 0
 1772 -56.5839843725 1580 -241.416015628 1518.66894531 -180.084960938 c 0
 1390.99980266 -52.4158182893 1063.38671875 286.197265625 1063.38671875 286.197265625 c 1
 958.084960938 216.48046875 831.876953125 175.776367188 696.112304688 175.776367188 c 0
 328.240234375 175.776367188 73 480 73 841.887695312 c 0
 73 1152 371 1468 696.112304688 1468 c 0
 1010 1468 1362.13867188 1209.75976562 1362.13867188 841.973632812 c 0
 1362.13867188 706.208007812 1321.43457031 580 1251.71777344 474.698242188 c 1
 1651.41601562 64 l 1
EndSplineSet
EndChar

StartChar: equal
Encoding: 61 61 11
Width: 2048
Flags: H
LayerCount: 3
Fore
SplineSet
440 340 m 25
 1520 340 l 5
 1520 270 l 29
 440 270 l 1
 440 340 l 25
440 750 m 25
 1520 750 l 5
 1520 680 l 29
 440 680 l 1
 440 750 l 25
440 1150 m 25
 1520 1150 l 5
 1520 1080 l 29
 440 1080 l 1
 440 1150 l 25
EndSplineSet
EndChar

StartChar: colon
Encoding: 58 58 12
Width: 1024
Flags: HW
LayerCount: 3
Fore
SplineSet
636 254 m 0
 636 319 689 372 754 372 c 0
 819 372 872 319 872 254 c 0
 872 189 819 136 754 136 c 0
 689 136 636 189 636 254 c 0
166 254 m 0
 166 319 219 372 284 372 c 0
 349 372 402 319 402 254 c 0
 402 189 349 136 284 136 c 0
 219 136 166 189 166 254 c 0
636 694 m 0
 636 759 689 812 754 812 c 0
 819 812 872 759 872 694 c 0
 872 629 819 576 754 576 c 0
 689 576 636 629 636 694 c 0
166 694 m 0
 166 759 219 812 284 812 c 0
 349 812 402 759 402 694 c 0
 402 629 349 576 284 576 c 0
 219 576 166 629 166 694 c 0
636 1144 m 4
 636 1209 689 1262 754 1262 c 4
 819 1262 872 1209 872 1144 c 4
 872 1079 819 1026 754 1026 c 4
 689 1026 636 1079 636 1144 c 4
166 1144 m 4
 166 1209 219 1262 284 1262 c 4
 349 1262 402 1209 402 1144 c 4
 402 1079 349 1026 284 1026 c 4
 219 1026 166 1079 166 1144 c 4
EndSplineSet
EndChar

StartChar: x
Encoding: 120 120 13
Width: 1024
Flags: HW
LayerCount: 3
Fore
SplineSet
107.790039062 299.44140625 m 1
 816.872070312 1009.52441406 l 1
 907.180664062 919.21484375 l 1
 198.098632812 209.1328125 l 1
 107.790039062 299.44140625 l 1
109.848632812 918.55859375 m 1
 202.713867188 1010.42382812 l 1
 907.708007812 302.4296875 l 1
 814.842773438 210.564453125 l 1
 109.848632812 918.55859375 l 1
EndSplineSet
Layer: 2
SplineSet
108 1150 m 1
 908 1150 l 1
 908 350 l 1
 108 350 l 1
 108 1150 l 1
EndSplineSet
EndChar

StartChar: plus
Encoding: 43 43 14
Width: 2048
Flags: H
LayerCount: 3
Fore
SplineSet
171 701 m 4
 171 223 559 -165 1037 -165 c 4
 1515 -165 1903 223 1903 701 c 4
 1903 1179 1515 1567 1037 1567 c 4
 559 1567 171 1179 171 701 c 4
60 700 m 4
 60 1240 498 1678 1038 1678 c 4
 1578 1678 2016 1240 2016 700 c 4
 2016 160 1578 -278 1038 -278 c 4
 498 -278 60 160 60 700 c 4
972 1194 m 5
 1102 1194 l 5
 1102 204 l 5
 972 204 l 5
 972 1194 l 5
540 764 m 5
 1533 764 l 5
 1533 634 l 5
 540 634 l 5
 540 764 l 5
EndSplineSet
EndChar

StartChar: plusminus
Encoding: 177 177 15
Width: 2048
Flags: HW
LayerCount: 3
Fore
SplineSet
1222.9375 1185.84960938 m 5
 1302.10253906 1292.72265625 l 5
 1486.92089844 1155.8203125 l 5
 1407.75585938 1048.94726562 l 5
 1222.9375 1185.84960938 l 5
1164.60546875 1107.10058594 m 5
 1349.42285156 970.198242188 l 5
 867.2890625 319.317382812 l 5
 640.745117188 208.366210938 l 4
 682.470703125 456.219726562 l 5
 1164.60546875 1107.10058594 l 5
EndSplineSet
Layer: 2
SplineSet
171 701 m 4
 171 223 559 -165 1037 -165 c 4
 1515 -165 1903 223 1903 701 c 4
 1903 1179 1515 1567 1037 1567 c 4
 559 1567 171 1179 171 701 c 4
60 700 m 4
 60 1240 498 1678 1038 1678 c 4
 1578 1678 2016 1240 2016 700 c 4
 2016 160 1578 -278 1038 -278 c 4
 498 -278 60 160 60 700 c 4
EndSplineSet
EndChar

StartChar: u
Encoding: 117 117 16
Width: 2048
Flags: HW
LayerCount: 3
Fore
SplineSet
171 701 m 4
 171 223 559 -165 1037 -165 c 4
 1515 -165 1903 223 1903 701 c 4
 1903 1179 1515 1567 1037 1567 c 4
 559 1567 171 1179 171 701 c 4
60 700 m 4
 60 1240 498 1678 1038 1678 c 4
 1578 1678 2016 1240 2016 700 c 4
 2016 160 1578 -278 1038 -278 c 4
 498 -278 60 160 60 700 c 4
681.944335938 476.096679688 m 5
 580.020507812 578.020507812 l 5
 1036 1034 l 5
 1137.92382812 932.076171875 l 5
 681.944335938 476.096679688 l 5
1391.46972656 474.681640625 m 5
 934.076171875 932.076171875 l 5
 1036 1034 l 5
 1493.39355469 576.606445312 l 5
 1391.46972656 474.681640625 l 5
EndSplineSet
EndChar

StartChar: d
Encoding: 100 100 17
Width: 2048
Flags: HW
LayerCount: 3
Fore
SplineSet
171 701 m 0
 171 223 559 -165 1037 -165 c 0
 1515 -165 1903 223 1903 701 c 0
 1903 1179 1515 1567 1037 1567 c 0
 559 1567 171 1179 171 701 c 0
60 700 m 0
 60 1240 498 1678 1038 1678 c 0
 1578 1678 2016 1240 2016 700 c 0
 2016 160 1578 -278 1038 -278 c 0
 498 -278 60 160 60 700 c 0
1390.05566406 971.903320312 m 5
 1491.97949219 869.979492188 l 5
 1036 414 l 5
 934.076171875 515.923828125 l 5
 1390.05566406 971.903320312 l 5
680.530273438 973.318359375 m 5
 1137.92382812 515.923828125 l 5
 1036 414 l 5
 578.606445312 871.393554688 l 5
 680.530273438 973.318359375 l 5
EndSplineSet
EndChar

StartChar: D
Encoding: 68 68 18
Width: 2048
Flags: HW
LayerCount: 3
Fore
SplineSet
171 701 m 0
 171 223 559 -165 1037 -165 c 0
 1515 -165 1903 223 1903 701 c 0
 1903 1179 1515 1567 1037 1567 c 0
 559 1567 171 1179 171 701 c 0
60 700 m 0
 60 1240 498 1678 1038 1678 c 0
 1578 1678 2016 1240 2016 700 c 0
 2016 160 1578 -278 1038 -278 c 0
 498 -278 60 160 60 700 c 0
1541.46972656 634.681640625 m 5
 564.6171875 634.682617188 l 5
 564.6171875 778.82421875 l 5
 1541.46875 778.82421875 l 5
 1541.46972656 634.681640625 l 5
EndSplineSet
Layer: 2
SplineSet
747.372070312 159.395507812 m 6
 725.5390625 950.551757812 l 6
 649.27734375 949.78515625 l 6
 670.412109375 159.395507812 l 6
 747.372070312 159.395507812 l 6
948.025390625 159.395507812 m 6
 948.025390625 949.78515625 l 6
 864.244140625 949.78515625 l 6
 864.244140625 159.395507812 l 6
 948.025390625 159.395507812 l 6
1145.16503906 159.395507812 m 6
 1166.29882812 949.78515625 l 6
 1086.03710938 949.78515625 l 6
 1064.90136719 159.395507812 l 6
 1145.16503906 159.395507812 l 6
592.944335938 1265.13183594 m 5
 592.944335938 1449.50878906 l 6
 592.944335938 1561.28320312 653.844726562 1622.38183594 762.34765625 1622.38183594 c 6
 1046.046875 1622.38183594 l 6
 1154.53320312 1622.38183594 1217.20996094 1556.25390625 1217.20996094 1444.48144531 c 6
 1217.20996094 1265.13183594 l 5
 1101.63378906 1265.13183594 l 5
 1101.63378906 1435.10449219 l 6
 1101.63378906 1479.02929688 1078.77929688 1502.52734375 1036.50878906 1502.52734375 c 6
 771.869140625 1502.52734375 l 6
 729.602539062 1502.52734375 708.525390625 1479.02929688 708.525390625 1435.10449219 c 6
 708.525390625 1265.13183594 l 5
 592.944335938 1265.13183594 l 5
226.64453125 1148.17382812 m 6
 226.64453125 1272.91699219 l 6
 1585.62890625 1272.91699219 l 6
 1585.62890625 1148.17382812 l 6
 226.64453125 1148.17382812 l 6
576.002929688 -167.782226562 m 6
 1236.27050781 -167.782226562 l 6
 1337.00195312 -167.782226562 1402.859375 -102.790039062 1407.80371094 7.392578125 c 6
 1457.12011719 1154.44140625 l 5
 1338.36425781 1154.44140625 l 5
 1291.15136719 22.201171875 l 6
 1289.74902344 -24.046875 1257.67480469 -51.3955078125 1216.10351562 -51.3955078125 c 6
 591.201171875 -51.3955078125 l 6
 551.052734375 -51.3955078125 522.526367188 -23.2734375 520.40625 22.201171875 c 6
 470.390625 1152.765625 l 5
 354.456054688 1152.765625 l 5
 404.469726562 6.650390625 l 6
 409.395507812 -103.577148438 473.8515625 -167.782226562 576.002929688 -167.782226562 c 6
EndSplineSet
EndChar

StartChar: g
Encoding: 103 103 19
Width: 2048
Flags: HO
LayerCount: 3
Fore
SplineSet
1021.83984375 1556.48046875 m 4
 1484.85351562 1556.48046875 1861.51953125 1179.81347656 1861.51953125 716.799804688 c 4
 1861.51953125 253.787109375 1484.85351562 -122.879882812 1021.83984375 -122.879882812 c 4
 558.827148438 -122.879882812 182.16015625 253.787109375 182.16015625 716.799804688 c 4
 182.16015625 1179.81347656 558.827148438 1556.48046875 1021.83984375 1556.48046875 c 4
1503.46679688 716.799804688 m 5
 1503.39648438 716.799804688 l 5
 1503.39648438 723.517578125 1503.25683594 730.165039062 1503.1171875 736.881835938 c 5
 1425.65625 728.6953125 1345.1171875 722.608398438 1263.17773438 718.549804688 c 4
 1263.17773438 717.989257812 1263.17773438 717.359375 1263.17773438 716.799804688 c 4
 1263.17773438 584.130859375 1254.22070312 456.359375 1237.35839844 341.04296875 c 5
 1310.83007812 346.361328125 1382.55273438 354.828125 1451.546875 366.163085938 c 5
 1485.48339844 473.712890625 1503.46679688 592.877929688 1503.46679688 716.799804688 c 5
540.284179688 716.799804688 m 5
 540.212890625 716.799804688 l 5
 540.212890625 594.625976562 557.70703125 477.000976562 590.6640625 370.711914062 c 5
 660.91796875 358.956054688 733.059570312 350 805.90234375 343.912109375 c 5
 789.318359375 458.458007812 780.501953125 585.25 780.501953125 716.799804688 c 4
 780.501953125 717.359375 780.501953125 717.989257812 780.501953125 718.549804688 c 4
 698.563476562 722.608398438 618.0234375 728.6953125 540.563476562 736.881835938 c 5
 540.493164062 730.165039062 540.284179688 723.517578125 540.284179688 716.799804688 c 5
625.161132812 1156.79199219 m 5
 625.231445312 1156.79199219 l 5
 579.188476562 1049.3828125 550.919921875 926.16015625 542.802734375 795.799804688 c 5
 619.7734375 787.54296875 699.752929688 781.385742188 781.271484375 777.327148438 c 5
 784.000976562 910.696289062 795.755859375 1037.90722656 815.69921875 1150.63476562 c 5
 754.891601562 1151.82421875 688.416992188 1153.78320312 625.161132812 1156.79199219 c 5
484.165039062 802.587890625 m 5
 484.165039062 802.657226562 l 6
 492.491210938 930.638671875 519.500976562 1052.32128906 562.955078125 1160.22167969 c 5
 493.051757812 1164.55957031 431.684570312 1170.64648438 393.059570312 1178.97363281 c 5
 320.916992188 1081.15136719 271.096679688 965.974609375 251.013671875 840.932617188 c 5
 323.2265625 825.608398438 401.596679688 812.803710938 484.165039062 802.587890625 c 5
1190.54492188 1313.8828125 m 4
 1200.1328125 1281.13476562 1208.80859375 1246.078125 1216.64648438 1209.20214844 c 5
 1281.23144531 1210.39160156 1339.58886719 1212.28125 1391.22949219 1214.51953125 c 5
 1379.54296875 1237.12207031 1367.01855469 1258.95410156 1353.58398438 1279.73535156 c 4
 1287.45898438 1381.96679688 1207.05957031 1450.6796875 1120.71289062 1480.55859375 c 5
 1146.60253906 1439.41503906 1170.04394531 1383.50585938 1190.54492188 1313.8828125 c 4
1064.03417969 1459.56738281 m 4
 1038.00390625 1497.07226562 1022.54003906 1497.49316406 1021.91015625 1497.49316406 c 4
 1021.28027344 1497.49316406 1005.81640625 1497.07226562 979.786132812 1459.56738281 c 4
 954.595703125 1423.3203125 930.384765625 1367.13183594 909.8125 1297.22851562 c 4
 901.555664062 1269.24023438 893.998046875 1239.43066406 887.141601562 1208.22265625 c 5
 929.754882812 1207.66308594 974.748046875 1207.38378906 1021.91015625 1207.38378906 c 4
 1069.07128906 1207.38378906 1114.06542969 1207.66308594 1156.67871094 1208.22265625 c 5
 1149.82128906 1239.43066406 1142.26367188 1269.24023438 1134.00683594 1297.22851562 c 4
 1113.43457031 1367.13183594 1089.29492188 1423.25097656 1064.03417969 1459.56738281 c 4
840.119140625 774.66796875 m 5
 960.54296875 770.189453125 1083.27636719 770.189453125 1203.70019531 774.66796875 c 5
 1201.04199219 909.296875 1188.86621094 1037.20800781 1168.43457031 1149.51464844 c 5
 1101.81933594 1148.53515625 1047.87011719 1148.39550781 1021.91015625 1148.39550781 c 4
 995.950195312 1148.39550781 941.930664062 1148.53515625 875.385742188 1149.51464844 c 5
 854.954101562 1037.20800781 842.848632812 909.296875 840.119140625 774.66796875 c 5
1204.33105469 715.890625 m 5
 1204.26074219 715.890625 l 6
 1143.87304688 713.651367188 1082.85742188 712.4609375 1021.83984375 712.4609375 c 4
 960.823242188 712.4609375 899.875976562 713.651367188 839.419921875 715.890625 c 5
 839.419921875 582.380859375 848.7265625 454.120117188 866.079101562 339.43359375 c 5
 970.129882812 332.99609375 1074.87988281 332.2265625 1177.3203125 337.334960938 c 5
 1194.95410156 452.581054688 1204.33105469 581.541992188 1204.33105469 715.890625 c 5
922.967773438 1480.62890625 m 5
 836.62109375 1450.75 756.220703125 1381.96679688 690.096679688 1279.80566406 c 4
 676.662109375 1259.0234375 664.206054688 1237.19140625 652.451171875 1214.59082031 c 5
 704.090820312 1212.3515625 762.448242188 1210.53222656 827.034179688 1209.27246094 c 5
 834.801757812 1246.1484375 843.477539062 1281.20507812 853.134765625 1313.95214844 c 4
 873.635742188 1383.57617188 897.077148438 1439.484375 922.967773438 1480.62890625 c 5
815.348632812 284.434570312 m 5
 815.278320312 284.434570312 l 6
 746.774414062 289.822265625 678.831054688 297.58984375 612.35546875 307.875 c 5
 633.837890625 252.317382812 659.8671875 200.537109375 690.096679688 153.794921875 c 4
 756.220703125 51.6337890625 836.690429688 -17.080078125 922.967773438 -46.958984375 c 5
 897.077148438 -5.8837890625 873.635742188 50.0947265625 853.134765625 119.717773438 c 4
 838.440429688 169.818359375 825.775390625 225.16796875 815.348632812 284.434570312 c 5
979.646484375 -25.966796875 m 5
 979.786132812 -25.966796875 l 5
 1005.81640625 -63.47265625 1021.28027344 -63.892578125 1021.91015625 -63.892578125 c 4
 1022.54003906 -63.892578125 1038.00390625 -63.47265625 1064.03417969 -25.966796875 c 4
 1089.22460938 10.279296875 1113.43457031 66.3984375 1134.00683594 136.37109375 c 4
 1146.7421875 179.825195312 1157.86816406 227.546875 1167.31445312 278.486328125 c 5
 1125.33007812 276.59765625 1083.06738281 275.547851562 1040.5234375 275.547851562 c 4
 985.733398438 275.547851562 930.8046875 277.227539062 876.015625 280.305664062 c 5
 885.532226562 228.735351562 896.727539062 180.384765625 909.672851562 136.37109375 c 4
 930.245117188 66.3984375 954.456054688 10.279296875 979.646484375 -25.966796875 c 5
1120.64160156 -46.958984375 m 5
 1206.98925781 -17.150390625 1287.38867188 51.6337890625 1353.51367188 153.794921875 c 4
 1382.90234375 199.27734375 1408.23339844 249.517578125 1429.36523438 303.328125 c 5
 1364.14941406 293.6015625 1296.625 286.463867188 1227.84179688 281.845703125 c 5
 1217.48535156 223.557617188 1205.03027344 169.118164062 1190.47558594 119.717773438 c 4
 1169.97363281 50.0947265625 1146.53320312 -5.814453125 1120.64160156 -46.958984375 c 5
1262.47753906 777.396484375 m 5
 1262.54882812 777.396484375 l 6
 1344.06738281 781.455078125 1424.046875 787.61328125 1501.01757812 795.870117188 c 5
 1492.83105469 926.229492188 1464.56152344 1049.5234375 1418.58886719 1156.86230469 c 5
 1355.33300781 1153.85351562 1288.78808594 1151.89453125 1228.05175781 1150.70507812 c 5
 1247.92382812 1037.97753906 1259.75 910.696289062 1262.47753906 777.396484375 c 5
1480.79492188 1160.29101562 m 5
 1480.79492188 1160.22167969 l 5
 1524.24902344 1052.32128906 1551.2578125 930.638671875 1559.58496094 802.657226562 c 5
 1642.22363281 812.943359375 1720.52441406 825.677734375 1792.73632812 841.002929688 c 5
 1772.65429688 965.974609375 1722.83300781 1081.22070312 1650.69042969 1179.04394531 c 5
 1612.06542969 1170.71679688 1550.69824219 1164.69921875 1480.79492188 1160.29101562 c 5
1608.70605469 1231.24414062 m 5
 1521.37890625 1330.74609375 1409.28222656 1407.85644531 1282.0703125 1452.98925781 c 5
 1325.87402344 1415.484375 1366.52832031 1368.25195312 1402.984375 1311.92285156 c 4
 1422.15820312 1282.32421875 1439.65039062 1250.90625 1455.53515625 1217.94921875 c 5
 1522.21972656 1221.79785156 1573.9296875 1226.34570312 1608.70605469 1231.24414062 c 5
761.609375 1452.91992188 m 5
 634.3984375 1407.85644531 522.30078125 1330.67578125 434.973632812 1231.17382812 c 5
 469.8203125 1226.34570312 521.4609375 1221.72753906 588.14453125 1217.87890625 c 5
 604.029296875 1250.8359375 621.522460938 1282.25488281 640.6953125 1311.85351562 c 4
 677.151367188 1368.18164062 717.805664062 1415.4140625 761.609375 1452.91992188 c 5
243.875976562 782.225585938 m 5
 243.946289062 782.225585938 l 5
 242.126953125 760.672851562 241.147460938 738.841796875 241.147460938 716.799804688 c 4
 241.147460938 620.586914062 258.640625 528.431640625 290.618164062 443.274414062 c 5
 364.650390625 418.993164062 443.719726562 398.771484375 525.938476562 382.607421875 c 5
 496.759765625 486.727539062 481.366210938 599.875 481.366210938 716.799804688 c 4
 481.366210938 725.756835938 481.576171875 734.642578125 481.786132812 743.599609375 c 4
 397.538085938 753.885742188 317.627929688 766.760742188 243.875976562 782.225585938 c 5
321.546875 371.901367188 m 5
 411.182617188 190.600585938 569.112304688 48.904296875 761.609375 -19.3193359375 c 5
 717.805664062 18.1865234375 677.151367188 65.41796875 640.6953125 121.747070312 c 4
 602.419921875 180.874023438 570.58203125 247.278320312 545.671875 318.931640625 c 5
 467.930664062 333.135742188 392.780273438 350.76953125 321.546875 371.901367188 c 5
1282.14160156 -19.3193359375 m 5
 1282.2109375 -19.2490234375 l 5
 1473.8671875 48.6943359375 1631.30761719 189.48046875 1721.15332031 369.732421875 c 5
 1651.45996094 347.270507812 1575.95898438 328.797851562 1496.39941406 314.383789062 c 5
 1471.69921875 244.48046875 1440.49121094 179.615234375 1403.0546875 121.747070312 c 4
 1366.59863281 65.41796875 1325.94433594 18.1865234375 1282.14160156 -19.3193359375 c 5
1753.06152344 442.923828125 m 6
 1753.13085938 442.923828125 l 5
 1785.17871094 528.221679688 1802.7421875 620.447265625 1802.7421875 716.799804688 c 4
 1802.7421875 738.841796875 1801.76269531 760.672851562 1799.94335938 782.225585938 c 5
 1726.19238281 766.760742188 1646.28222656 753.885742188 1562.03417969 743.599609375 c 4
 1562.24414062 734.713867188 1562.45410156 725.756835938 1562.45410156 716.799804688 c 4
 1562.45410156 598.125 1546.5703125 483.298828125 1516.55175781 377.849609375 c 5
 1601.4296875 394.642578125 1681.05957031 416.404296875 1753.06152344 442.923828125 c 6
EndSplineSet
EndChar
